<!DOCTYPE svg PUBLIC "-//W3C//DTD SVG 1.1//EN" "http://www.w3.org/Graphics/SVG/1.1/DTD/svg11.dtd">
<!-- Uploaded to: SVG Repo, www.svgrepo.com, Transformed by: SVG Repo Mixer Tools -->
<svg fill="#000000" width="800px" height="800px" viewBox="-4 -2 24 24" xmlns="http://www.w3.org/2000/svg" preserveAspectRatio="xMinYMin" class="jam jam-shield-half">
<g id="SVGRepo_bgCarrier" stroke-width="0"/>
<g id="SVGRepo_tracerCarrier" stroke-linecap="round" stroke-linejoin="round" stroke="#030202" stroke-width="0.9600000000000002">
<path d="M8 2.136l-6 2.25V8a9.02 9.02 0 0 0 3.08 6.787L8 17.342V2.136zm-7.351.62L8 0l7.351 2.757a1 1 0 0 1 .649.936V8c0 3.177-1.372 6.2-3.763 8.293L8 20l-4.237-3.707A11.019 11.019 0 0 1 0 8V3.693a1 1 0 0 1 .649-.936z"/>
</g>
<g id="SVGRepo_iconCarrier">
<path d="M8 2.136l-6 2.25V8a9.02 9.02 0 0 0 3.08 6.787L8 17.342V2.136zm-7.351.62L8 0l7.351 2.757a1 1 0 0 1 .649.936V8c0 3.177-1.372 6.2-3.763 8.293L8 20l-4.237-3.707A11.019 11.019 0 0 1 0 8V3.693a1 1 0 0 1 .649-.936z"/>
</g>
</svg>