<!DOCTYPE svg PUBLIC "-//W3C//DTD SVG 1.1//EN" "http://www.w3.org/Graphics/SVG/1.1/DTD/svg11.dtd">
<!-- Uploaded to: SVG Repo, www.svgrepo.com, Transformed by: SVG Repo Mixer Tools -->
<svg width="800px" height="800px" viewBox="0 0 24 24" fill="none" xmlns="http://www.w3.org/2000/svg" stroke="#000000" stroke-width="0.072">
<g id="SVGRepo_bgCarrier" stroke-width="0"/>
<g id="SVGRepo_tracerCarrier" stroke-linecap="round" stroke-linejoin="round"/>
<g id="SVGRepo_iconCarrier"> <path fill-rule="evenodd" clip-rule="evenodd" d="M18.7071 1.29289C18.3166 0.902369 17.6834 0.902369 17.2929 1.29289C16.9024 1.68342 16.9024 2.31658 17.2929 2.70711L18.5858 4L15.5 7.08579L11.7071 3.29289C11.3166 2.90237 10.6834 2.90237 10.2929 3.29289C9.90237 3.68342 9.90237 4.31658 10.2929 4.70711L11.5858 6L3.20711 14.3787C2.03553 15.5503 2.03553 17.4497 3.20711 18.6213L3.58579 19L1.29289 21.2929C0.902369 21.6834 0.902369 22.3166 1.29289 22.7071C1.68342 23.0976 2.31658 23.0976 2.70711 22.7071L5 20.4142L5.37868 20.7929C6.55026 21.9645 8.44975 21.9645 9.62132 20.7929L18 12.4142L19.2929 13.7071C19.6834 14.0976 20.3166 14.0976 20.7071 13.7071C21.0976 13.3166 21.0976 12.6834 20.7071 12.2929L16.9142 8.5L20 5.41421L21.2929 6.70711C21.6834 7.09763 22.3166 7.09763 22.7071 6.70711C23.0976 6.31658 23.0976 5.68342 22.7071 5.29289L18.7071 1.29289ZM14.0858 8.5L13 7.41421L10.9142 9.5L12 10.5858L14.0858 8.5ZM13.4142 12L15.5 9.91421L16.5858 11L14.5 13.0858L13.4142 12ZM4.62132 15.7929L9.5 10.9142L13.0858 14.5L8.20711 19.3787C7.81658 19.7692 7.18342 19.7692 6.79289 19.3787L4.62132 17.2071C4.2308 16.8166 4.2308 16.1834 4.62132 15.7929Z" fill="#0F0F0F"/> </g>
</svg>