<!DOCTYPE svg PUBLIC "-//W3C//DTD SVG 1.1//EN" "http://www.w3.org/Graphics/SVG/1.1/DTD/svg11.dtd">
<!-- Uploaded to: SVG Repo, www.svgrepo.com, Transformed by: SVG Repo Mixer Tools -->
<svg width="800px" height="800px" viewBox="0 0 24 24" fill="none" xmlns="http://www.w3.org/2000/svg" transform="rotate(180)">
<g id="SVGRepo_bgCarrier" stroke-width="0"/>
<g id="SVGRepo_tracerCarrier" stroke-linecap="round" stroke-linejoin="round"/>
<g id="SVGRepo_iconCarrier"> <path fill-rule="evenodd" clip-rule="evenodd" d="M18.054 18.4051C20.0715 19.8402 23 18.5164 23 16.1694V7.83062C23 5.48359 20.0715 4.15983 18.054 5.59492L13 9.18996V7.83063C13 5.48359 10.0715 4.15983 8.05399 5.59492L2.19258 9.7643C0.602474 10.8954 0.602471 13.1046 2.19258 14.2357L8.05399 18.4051C10.0715 19.8402 13 18.5164 13 16.1694V14.81L18.054 18.4051ZM20.9538 16.1694C20.9538 16.9517 19.9776 17.393 19.3051 16.9146L13.4437 12.7452C12.9137 12.3682 12.9137 11.6318 13.4437 11.2548L19.3051 7.08539C19.9776 6.60703 20.9538 7.04828 20.9538 7.83062V16.1694ZM10.9538 16.1694C10.9538 16.9517 9.97763 17.393 9.30513 16.9146L3.44372 12.7452C2.91369 12.3682 2.91369 11.6318 3.44373 11.2548L9.30513 7.08539C9.97763 6.60703 10.9538 7.04828 10.9538 7.83063L10.9538 16.1694Z" fill="#0F0F0F"/> </g>
</svg>