<!DOCTYPE svg PUBLIC "-//W3C//DTD SVG 1.1//EN" "http://www.w3.org/Graphics/SVG/1.1/DTD/svg11.dtd">

<!-- Uploaded to: SVG Repo, www.svgrepo.com, Transformed by: SVG Repo Mixer Tools -->
<svg fill="#000000" height="800px" width="800px" version="1.1" id="Layer_1" xmlns="http://www.w3.org/2000/svg" xmlns:xlink="http://www.w3.org/1999/xlink" viewBox="0 0 512 512" xml:space="preserve">
<g id="SVGRepo_bgCarrier" stroke-width="0"/>
<g id="SVGRepo_tracerCarrier" stroke-linecap="round" stroke-linejoin="round"/>
<g id="SVGRepo_iconCarrier"> <g> <g> <g> <path d="M192,42.667H21.333C9.551,42.667,0,52.218,0,64v384c0,11.782,9.551,21.333,21.333,21.333H192 c19.065,0,28.556-23.101,14.998-36.505L173.79,400l33.208-32.829c8.447-8.351,8.447-21.992,0-30.343L173.79,304l33.208-32.829 c8.447-8.351,8.447-21.992,0-30.343L173.79,208l33.208-32.829c8.447-8.351,8.447-21.992,0-30.343L173.79,112l33.208-32.829 C220.556,65.768,211.065,42.667,192,42.667z M128.447,223.171L161.655,256l-33.208,32.829c-8.447,8.351-8.447,21.992,0,30.343 L161.655,352l-33.208,32.829c-8.447,8.351-8.447,21.992,0,30.343l11.628,11.495H42.667V85.333h97.409l-11.628,11.495 c-8.447,8.351-8.447,21.992,0,30.343L161.655,160l-33.208,32.829C120,201.179,120,214.821,128.447,223.171z"/> <path d="M490.667,42.667H347.221c-5.615,0-11.005,2.214-14.998,6.162l-48.555,48c-8.447,8.351-8.447,21.992,0,30.343L316.877,160 l-33.208,32.829c-8.447,8.351-8.447,21.992,0,30.343L316.877,256l-33.208,32.829c-8.447,8.351-8.447,21.992,0,30.343L316.877,352 l-33.208,32.829c-8.447,8.351-8.447,21.992,0,30.343l48.555,48c3.994,3.948,9.383,6.162,14.998,6.162h143.445 c11.782,0,21.333-9.551,21.333-21.333V64C512,52.218,502.449,42.667,490.667,42.667z M469.333,426.667H355.986L329.011,400 l33.208-32.829c8.447-8.351,8.447-21.992,0-30.343L329.011,304l33.208-32.829c8.447-8.351,8.447-21.992,0-30.343L329.011,208 l33.208-32.829c8.447-8.351,8.447-21.992,0-30.343L329.011,112l26.975-26.667h113.347V426.667z"/> </g> </g> </g> </g></svg>